<?xml version="1.0" encoding="UTF-8"?> <svg xmlns="http://www.w3.org/2000/svg" width="80" height="80" viewBox="0 0 80 80" fill="none"> <path opacity="1" fill-rule="evenodd" clip-rule="evenodd" d="M40 80C62.0914 80 80 62.0914 80 40C80 17.9086 62.0914 0 40 0C17.9086 0 0 17.9086 0 40C0 62.0914 17.9086 80 40 80ZM52.5632 33.8132C53.1734 33.203 53.1734 32.2137 52.5632 31.6035C51.953 30.9933 50.9637 30.9933 50.3535 31.6035L36.875 45.082L29.6465 37.8535C29.0363 37.2433 28.047 37.2433 27.4368 37.8535C26.8266 38.4637 26.8266 39.453 27.4368 40.0632L35.7701 48.3965C36.3803 49.0067 37.3697 49.0067 37.9799 48.3965L52.5632 33.8132Z" fill="#ffb51e" fill-opacity="1"></path> </svg>
